<svg xmlns="http://www.w3.org/2000/svg" width="99.027" height="25.905" viewBox="0 0 99.027 25.905">
  <g id="Raggruppa_731" data-name="Raggruppa 731" transform="translate(-1173.973 -5312)">
    <g id="Raggruppa_36" data-name="Raggruppa 36" transform="translate(1223.946 5312)">
      <path id="Tracciato_71" data-name="Tracciato 71" d="M175.906,23.315a.762.762,0,1,0-.811-.709A.738.738,0,0,0,175.906,23.315Z" transform="translate(-165.929 -14.433)" fill="#fff"/>
      <path id="Tracciato_72" data-name="Tracciato 72" d="M184.806,22.815a.762.762,0,1,0-.811-.709A.759.759,0,0,0,184.806,22.815Z" transform="translate(-171.823 -14.101)" fill="#fff"/>
      <path id="Tracciato_73" data-name="Tracciato 73" d="M184.439,35.393a.474.474,0,1,0,.507.439A.445.445,0,0,0,184.439,35.393Z" transform="translate(-171.828 -23.437)" fill="#fff"/>
      <path id="Tracciato_74" data-name="Tracciato 74" d="M179.339,35.7a.474.474,0,1,0,.507.439A.508.508,0,0,0,179.339,35.7Z" transform="translate(-168.45 -23.642)" fill="#fff"/>
      <path id="Tracciato_75" data-name="Tracciato 75" d="M194.617,7.836a4.026,4.026,0,0,1,1.79-.507l.135-1.081a5.353,5.353,0,0,0-2.9.878c-3.513,1.554-4.8.507-6.046-.507-.1-.1-.2-.169-.3-.27-.912-.709-2.7-.236-4.188.405a8.261,8.261,0,0,1-3.85-.236,7.384,7.384,0,0,1-.946-.3h0a10.413,10.413,0,0,0-2.972-.675,25.594,25.594,0,0,0-7.869.642,1.77,1.77,0,0,0,.236-1.79,1.444,1.444,0,0,0-1.351-.743,2.9,2.9,0,0,0-1.621.54l-1.351.946c-.034-.068-.1-.1-.135-.169a2.167,2.167,0,0,0,.2-.338l.034-.068a3.207,3.207,0,0,0,.3-1.148,3.87,3.87,0,0,0-.2-1.621,8.627,8.627,0,0,0-.473-1.182l-.034-.034a1.032,1.032,0,0,0-1.621-.3,1.157,1.157,0,0,0-.372,1.115,4.128,4.128,0,0,1-.068,1.25h0v.034a1.615,1.615,0,0,1-.405.608,5.736,5.736,0,0,0-2.33-.2,2.964,2.964,0,0,0-.642.2,1.6,1.6,0,0,1-.439-.608,3.543,3.543,0,0,1-.135-1.148,1.179,1.179,0,0,0-.473-1.081,1.012,1.012,0,0,0-.608-.2A1.06,1.06,0,0,0,155,.912l-.034.034a8.353,8.353,0,0,0-.372,1.216,5.235,5.235,0,0,0-.034,1.655,3.153,3.153,0,0,0,.405,1.115,4.1,4.1,0,0,0,.338.473c-.034.068-.1.169-.135.236L154.02,5.1a3.331,3.331,0,0,0-1.25-.27,1.582,1.582,0,0,0-1.621.979,2.14,2.14,0,0,0,1.182,2.263.118.118,0,0,0,.068.034l1.858.946a5.542,5.542,0,0,0-.169,1.013,3.565,3.565,0,0,0,.405,2.128l-6.215,2.972a.739.739,0,0,0-.3.338.675.675,0,0,0,.068.439,5.685,5.685,0,0,0,4.087,2.162h.169l2.5-.608h.034c.068-.034,1.452-.439,2.06.439l-5.4,5.809c-.034.068-.1.1-.1.169a1.667,1.667,0,0,0,.27,1.689,1.352,1.352,0,0,0,.912.3,5.827,5.827,0,0,0,2.33-.709c.034,0,.034-.034.068-.034l7.262-4.762a17.225,17.225,0,0,1,9.085-2.837c.473,0,.946.034,1.419.068v.1a4.236,4.236,0,0,0,1.52,2.533c.068.405.236,1.182.777,1.351a.882.882,0,0,0,.844-.236c-.1,1.52.27,3.783,1.419,4.256a1.079,1.079,0,0,0,.473.1,1.964,1.964,0,0,0,1.452-.878l.034-.034,3.141-4.762a17.065,17.065,0,0,1,2.162,1.081c.338.236,2.094,1.283,3.073.405s-.068-2.668-.338-3.073l-3.411-6.282h0c-.034-.068-.068-.1-.1-.169l-.439-.777c-.811-1.79-.169-2.634-.169-2.634A9.764,9.764,0,0,1,185.8,7.262a1.591,1.591,0,0,1,.878.1c.1.068.2.169.3.236a5.464,5.464,0,0,0,3.648,1.52,8.119,8.119,0,0,0,2.9-.608l2.871,1.959.608-.912Zm-29.283-2.77a2.119,2.119,0,0,1,1.013-.338c.1,0,.3,0,.372.135.1.2-.068.675-.507,1.115l-1.081.777-.1.068-.2.135-.034-.068-.574-1.047Zm-3.715-1.655a4.169,4.169,0,0,0,.338-2.229.272.272,0,0,1,.1-.3.18.18,0,0,1,.3.068l.034.034a5.288,5.288,0,0,1,.405,1.013,3.784,3.784,0,0,1,.169,1.317,2.644,2.644,0,0,1-.236.844c-.034.068-.068.1-.068.169a5.162,5.162,0,0,0-1.081-.743A.149.149,0,0,1,161.619,3.411Zm-6.147-1.182a5.347,5.347,0,0,1,.3-1.047l.034-.034c.068-.135.169-.169.27-.1a.272.272,0,0,1,.1.3,5.238,5.238,0,0,0,.135,1.351h0a.532.532,0,0,0,.034.135v.034c0,.034,0,.034.034.068a1.747,1.747,0,0,0,.2.439,2.051,2.051,0,0,0,.236.338,6.556,6.556,0,0,0-.979.878c-.034-.068-.1-.1-.135-.169a2.191,2.191,0,0,1-.3-.811A4.4,4.4,0,0,1,155.472,2.229Zm-.3,7.869c.2-1.621,1.317-5.877,3.681-6.046h.777a.124.124,0,0,1,.1.034h.1a.124.124,0,0,1,.1.034c.034,0,.068.034.1.034s.068.034.1.034.068.034.1.034.068.034.1.034.034,0,.068.034a.033.033,0,0,1,.034.034.118.118,0,0,1,.068.034h0c.034,0,.068.034.1.034s.034.034.068.034c.034.034.068.034.1.068h0a2.518,2.518,0,0,1,.405.236.033.033,0,0,1,.034.034,1.5,1.5,0,0,1,.372.27h0l.068.068c.034.034.068.034.1.068h0l.034.034c.068.068.135.1.2.169V5.4l.1.1a4.549,4.549,0,0,1,.405.405h0a5.88,5.88,0,0,1,.405.473h0c.068.1.169.2.236.3h0c.034.034.068.1.1.135h0v.034c.034.034.068.1.1.135l.034.034c.034.034.068.068.068.1l.034.034c.034.034.034.068.068.1,0,.034.034.034.034.068.034.034.034.068.068.068,0,.034.034.034.034.068s.034.034.034.068.034.034.034.068a.033.033,0,0,0,.034.034.1.1,0,0,1,.034.068h0a.738.738,0,0,0,.1.169c.034.034.034.068.068.1h0c0,.034.034.034.034.068h0a.033.033,0,0,0,.034.034v.034a.033.033,0,0,0,.034.034h0c.54,1.554.608,2.668.2,3.209a1.581,1.581,0,0,1-1.385.405h-.068a3.124,3.124,0,0,0-3.377-1.993,3.275,3.275,0,0,0-3.073,2.229h-.169a1.329,1.329,0,0,1-.878-.473A2.624,2.624,0,0,1,155.168,10.1Zm6.552,3.648a3.162,3.162,0,0,1-1.858.743h-.236a2.342,2.342,0,0,1-2.533-1.824,2.356,2.356,0,0,1,2.5-2.162h.236a2.337,2.337,0,0,1,2.533,1.858A1.675,1.675,0,0,1,161.72,13.746ZM154.391,7.8l-1.486-.777c-.507-.338-.777-.777-.675-1.013.034-.135.27-.236.574-.236a2.322,2.322,0,0,1,.811.169l1.148.54A7.5,7.5,0,0,0,154.391,7.8ZM176.547,20.13a.815.815,0,0,0-.642.068l-.1.1c-.372.507-.574.574-.642.54-.135-.034-.3-.507-.338-.979a.294.294,0,0,0-.2-.27c-.675-.27-1.115-1.52-1.283-2.094a28.141,28.141,0,0,1,6.654,1.486c-.034.27-.439.54-.439.54a.307.307,0,0,0-.135.27v.844c-.034.068-.034.1-.068.1a1.094,1.094,0,0,1-.3-.27.8.8,0,0,0-1.148-.034c-.034.034-.068.034-.068.068-.2.27-.405.439-.54.439-.135-.034-.3-.27-.405-.473A.658.658,0,0,0,176.547,20.13Zm1.723,3.918c-.3.372-.54.473-.642.439-.405-.169-.811-1.587-.777-2.972a1.011,1.011,0,0,0,.338.135h.1a1.337,1.337,0,0,0,1.013-.642.626.626,0,0,1,.236-.068c.1.135.473.608.946.54a.787.787,0,0,0,.574-.608c0-.034.034-.068.034-.1v-.743a1.525,1.525,0,0,0,.574-.777c.236.068.439.169.642.236Zm6.383-8.241,1.655,3.04a.033.033,0,0,0,.034.034c.439.675.709,1.554.507,1.689-.2.2-1.115-.1-1.756-.54a31.077,31.077,0,0,0-9.457-3.31c-.27-.642-1.621-3.715-3.85-3.817-2.5-.135-3.546,1.959-5.539,3.04a9.18,9.18,0,0,0-2.837,2.364,14.069,14.069,0,0,0-1.79,1.047l-7.228,4.728c-1.621.811-2.026.574-2.026.574a.774.774,0,0,1,0-.405l5.573-5.978a.59.59,0,0,0,.1-.574c-.675-1.723-2.6-1.655-3.513-1.385l-2.4.608a4.6,4.6,0,0,1-2.736-1.182l5.944-2.837a2.431,2.431,0,0,0,.878.27h.3a3.118,3.118,0,0,0,3.107,1.993h.27a3.6,3.6,0,0,0,2.229-.912,2.4,2.4,0,0,0,.811-1.317c.1,0,.2.034.338.034a2.352,2.352,0,0,0,1.959-.844c.574-.709.642-1.79.27-3.242A6.622,6.622,0,0,0,165.2,8l.034-.034.034-.034a14.122,14.122,0,0,1,4.087-.979c.3-.034.608-.1.912-.135.439,1.047,1.959,4.188,3.918,4.222,2.06.034,4.053-2.77,4.458-3.377a7.7,7.7,0,0,1,2.432,1.959h0l.27.507c-.507.338-3.783,2.6-2.229,4.931C180.6,17.157,183.741,16.144,184.653,15.806Z" transform="translate(-147.961 0)" fill="#fff"/>
      <path id="Tracciato_76" data-name="Tracciato 76" d="M186.1,13.3Z" transform="translate(-173.219 -8.808)" fill="#fff"/>
      <path id="Tracciato_77" data-name="Tracciato 77" d="M180.436,12h0Z" transform="translate(-169.311 -7.947)" fill="#fff"/>
      <path id="Tracciato_78" data-name="Tracciato 78" d="M181.034,12h0Z" transform="translate(-169.841 -7.947)" fill="#fff"/>
      <path id="Tracciato_79" data-name="Tracciato 79" d="M183.5,12.334h0c-.034,0-.068-.034-.1-.034.034,0,.068.034.1.034Z" transform="translate(-171.431 -8.146)" fill="#fff"/>
      <path id="Tracciato_80" data-name="Tracciato 80" d="M187.772,14.27h0c-.135-.1-.236-.169-.372-.27a2.169,2.169,0,0,1,.439.338Z" transform="translate(-174.08 -9.272)" fill="#fff"/>
      <path id="Tracciato_81" data-name="Tracciato 81" d="M185.269,12.968c-.034,0-.034-.034-.068-.034s-.068-.034-.1-.034a.679.679,0,0,1,.27.135C185.37,13,185.336,12.968,185.269,12.968Z" transform="translate(-172.556 -8.543)" fill="#fff"/>
      <path id="Tracciato_82" data-name="Tracciato 82" d="M195.834,23.768c0-.034-.034-.034-.034-.068a.118.118,0,0,0,.034.068Z" transform="translate(-179.643 -15.695)" fill="#fff"/>
      <path id="Tracciato_83" data-name="Tracciato 83" d="M184,12.5c-.034,0-.068-.034-.1-.034s-.068-.034-.1-.034-.068-.034-.1-.034a1.57,1.57,0,0,1,.3.1Z" transform="translate(-171.629 -8.212)" fill="#fff"/>
      <path id="Tracciato_84" data-name="Tracciato 84" d="M182.535,12.134a.124.124,0,0,1-.1-.034H182.4c.034,0,.1.034.135.034Z" transform="translate(-170.768 -8.013)" fill="#fff"/>
    </g>
    <g id="Raggruppa_37" data-name="Raggruppa 37" transform="translate(1173.973 5321.93)">
      <path id="Tracciato_85" data-name="Tracciato 85" d="M0,37.5v-8H.912l2.7,6.417h.034L6.35,29.5h.912v8.038H6.417V31.526H6.35l-2.3,5.37H3.209l-2.3-5.37H.878V37.5Z" transform="translate(0 -29.466)" fill="#fff"/>
      <path id="Tracciato_86" data-name="Tracciato 86" d="M25.9,37.438,28.771,29.4h.912l2.871,8.038H31.54L30.7,34.973h-3.04l-.844,2.466Zm3.31-6.856L27.96,34.23h2.5l-1.25-3.648Z" transform="translate(-17.152 -29.4)" fill="#fff"/>
      <path id="Tracciato_87" data-name="Tracciato 87" d="M52.533,29.5c2.6,0,3.513,1.689,3.513,4.019,0,2.3-.878,4.019-3.513,4.019H50V29.5Zm-1.587,7.16H52.5c1.824,0,2.6-1.148,2.6-3.175,0-1.959-.743-3.175-2.6-3.175H50.946Z" transform="translate(-33.113 -29.466)" fill="#fff"/>
      <path id="Tracciato_88" data-name="Tracciato 88" d="M78.162,37.5H73.4v-8h4.762v.844h-3.85v2.634h3.614v.844H74.312V36.66h3.817l.034.844Z" transform="translate(-48.609 -29.466)" fill="#fff"/>
      <path id="Tracciato_89" data-name="Tracciato 89" d="M101.4,29.5h2.972a1.957,1.957,0,0,1,2.2,1.993,1.742,1.742,0,0,1-1.283,1.79h0a1.873,1.873,0,0,1,1.723,1.993c0,1.486-1.148,2.263-2.8,2.263h-2.8Zm.946,3.479h1.25c1.317,0,2.026-.372,2.026-1.351a1.217,1.217,0,0,0-1.385-1.283h-1.891Zm0,3.681h1.419c1.317,0,2.3-.2,2.3-1.385,0-1.013-.709-1.486-1.723-1.486h-1.993Z" transform="translate(-67.153 -29.466)" fill="#fff"/>
      <path id="Tracciato_90" data-name="Tracciato 90" d="M123.468,37.438V33.926L120.8,29.4h1.081l2.06,3.58h.068l2.06-3.58h1.081l-2.77,4.526v3.513h-.912Z" transform="translate(-80 -29.4)" fill="#fff"/>
    </g>
  </g>
</svg>
